CIA operative Valerie Plame discovers her identity is allegedly leaked by the government as payback for an op-ed article her husband wrote criticizing the Bush administration.
 


Director: 
Doug Liman

 Writers: 
Jez Butterworth (screenplay), John-Henry Butterworth (screenplay), and 2 more credits »
 
Stars:
 Naomi Watts, Sean Penn and Sonya Davison 

Media info:

General
Complete name                    : E:\torrent2\Fair.Game.2010.BluRayrip.mkv.1080p.AVC.DTS 5.1-ACB-Team\Fair.Game.2010.BluRayrip.mkv.1080p.AVC.DTS 5.1-ACB-Team.mkv
Format                           : Matroska
File size                        : 9.54 GiB
Duration                         : 1h 47mn
Overall bit rate                 : 12.7 Mbps
Movie name                       : movie
Encoded date                     : UTC 2011-03-27 05:43:02
Writing application              : mkvmerge v3.2.0 ('Beginnings') built on Feb 12 2010 16:46:17
Writing library                  : libebml v0.7.9 + libmatroska v0.8.1

Video
ID                               : 1
Format                           : AVC
Format/Info                      : Advanced Video Codec
Format profile                   : High@L4.1
Format settings, CABAC           : Yes
Format settings, ReFrames        : 4 frames
Muxing mode                      : Container profile=Unknown@4.1
Codec ID                         : V_MPEG4/ISO/AVC
Duration                         : 1h 47mn
Bit rate                         : 11.1 Mbps
Width                            : 1 920 pixels
Height                           : 808 pixels
Display aspect ratio             : 2.35:1
Frame rate                       : 23.976 fps
Color space                      : YUV
Chroma subsampling               : 4:2:0
Bit depth                        : 8 bits
Scan type                        : Progressive
Bits/(Pixel*Frame)               : 0.299
Stream size                      : 8.22 GiB (86%)
Writing library                  : x264 core 107 r1745 4785e8e
Encoding settings                : cabac=1 / ref=4 / deblock=1:-1:-1 / analyse=0x3:0x113 / me=umh / subme=8 / psy=1 / psy_rd=1.00:0.15 / mixed_ref=1 / me_range=16 / chroma_me=1 / trellis=1 / 8x8dct=1 / cqm=0 / deadzone=21,11 / fast_pskip=0 / chroma_qp_offset=-3 / threads=3 / sliced_threads=0 / nr=0 / decimate=1 / interlaced=0 / constrained_intra=0 / bframes=3 / b_pyramid=2 / b_adapt=2 / b_bias=0 / direct=3 / weightb=1 / open_gop=0 / weightp=2 / keyint=250 / keyint_min=23 / scenecut=40 / intra_refresh=0 / rc_lookahead=50 / rc=2pass / mbtree=1 / bitrate=11136 / ratetol=1.0 / qcomp=0.60 / qpmin=10 / qpmax=51 / qpstep=4 / cplxblur=20.0 / qblur=0.5 / ip_ratio=1.40 / aq=1:1.00
Language                         : English

Audio
ID                               : 2
Format                           : DTS
Format/Info                      : Digital Theater Systems
Codec ID                         : A_DTS
Duration                         : 1h 47mn
Bit rate mode                    : Constant
Bit rate                         : 1 510 Kbps
Channel(s)                       : 6 channels
Channel positions                : Front: L C R, Side: L R, LFE
Sampling rate                    : 48.0 KHz
Bit depth                        : 24 bits
Stream size                      : 1.14 GiB (12%)
Language                         : English

Text #1
ID                               : 3
Format                           : VobSub
Muxing mode                      : zlib
Codec ID                         : S_VOBSUB
Codec ID/Info                    : The same subtitle format used on DVDs
Language                         : English

Text #2
ID                               : 4
Format                           : VobSub
Muxing mode                      : zlib
Codec ID                         : S_VOBSUB
Codec ID/Info                    : The same subtitle format used on DVDs
Language                         : English

Text #3
ID                               : 5
Format                           : VobSub
Muxing mode                      : zlib
Codec ID                         : S_VOBSUB
Codec ID/Info                    : The same subtitle format used on DVDs
Language                         : Spanish

Text #4
ID                               : 6
Format                           : VobSub
Muxing mode                      : zlib
Codec ID                         : S_VOBSUB
Codec ID/Info                    : The same subtitle format used on DVDs
Title                            : Forced
Language                         : Spanish

Text #5
ID                               : 7
Format                           : VobSub
Muxing mode                      : zlib
Codec ID                         : S_VOBSUB
Codec ID/Info                    : The same subtitle format used on DVDs
Language                         : Spanish

Text #6
ID                               : 8
Format                           : UTF-8
Codec ID                         : S_TEXT/UTF8
Codec ID/Info                    : UTF-8 Plain Text
Language                         : Dutch

Menu
00:00:00.000                     : en:00:00:00.000
00:05:13.730                     : en:00:05:13.730
00:09:18.933                     : en:00:09:18.933
00:14:47.428                     : en:00:14:47.428
00:21:17.943                     : en:00:21:17.943
00:27:58.802                     : en:00:27:58.802
00:34:56.594                     : en:00:34:56.594
00:41:12.220                     : en:00:41:12.220
00:49:09.238                     : en:00:49:09.238
00:54:25.804                     : en:00:54:25.804
01:00:06.853                     : en:01:00:06.853
01:06:55.261                     : en:01:06:55.261
01:11:50.264                     : en:01:11:50.264
01:17:42.825                     : en:01:17:42.825
01:21:50.280                     : en:01:21:50.280
01:27:16.606                     : en:01:27:16.606
01:30:24.753                     : en:01:30:24.753
01:37:45.359                     : en:01:37:45.359

